<svg width="12" height="9" viewBox="0 0 12 9" fill="none" xmlns="http://www.w3.org/2000/svg">
<path fill-rule="evenodd" clip-rule="evenodd" d="M1.95676 0C1.05507 0 0.401817 0.623815 0.135903 1.38561C-0.129964 2.14727 -0.0244781 3.08383 0.619214 3.75625L4.50094 7.81124C5.27345 8.61823 6.48393 8.59197 7.22778 7.75514L10.8322 3.70016C11.4404 3.01602 11.525 2.09403 11.2505 1.34856C10.976 0.602935 10.3268 0 9.44295 0H1.95676ZM2.74893 2.71081C2.62717 2.58362 2.71732 2.37251 2.8934 2.37251H8.55221C8.72478 2.37251 8.81634 2.57641 8.70169 2.70538L5.97708 5.77054C5.89948 5.85784 5.7639 5.86035 5.68312 5.77597L2.74893 2.71081Z" fill="black"/>
</svg>
