<svg width="19" height="19" viewBox="0 0 19 19" fill="none" xmlns="http://www.w3.org/2000/svg">
<path fill-rule="evenodd" clip-rule="evenodd" d="M10.6489 3.35629C10.6489 4.63503 10.2136 5.80614 9.49133 6.7126C8.76907 5.80615 8.33378 4.63505 8.33378 3.35632C8.33378 2.07757 8.76908 0.906459 9.49135 0C10.2136 0.906455 10.6489 2.07755 10.6489 3.35629ZM14.6536 5.98587C13.7781 6.86115 12.6609 7.34732 11.5168 7.44439C11.6139 6.30054 12.1002 5.18351 12.9756 4.30824C13.851 3.43296 14.9683 2.94678 16.1123 2.84972C16.0153 3.99356 15.529 5.1106 14.6536 5.98587ZM2.71937 16.2402C3.86344 16.1431 4.98069 15.657 5.85613 14.7817C6.73157 13.9064 7.21783 12.7894 7.31491 11.6455C6.17085 11.7426 5.0536 12.2288 4.17815 13.1041C3.30272 13.9793 2.81646 15.0964 2.71937 16.2402ZM15.7733 10.7067C14.5354 10.7299 13.3934 10.3051 12.5021 9.58152C13.3657 8.82503 14.491 8.35778 15.7288 8.33458C16.9666 8.31139 18.1087 8.73616 19 9.45979C18.1364 10.2163 17.0111 10.6835 15.7733 10.7067ZM0 9.49504C0.871761 10.2421 2.00207 10.6971 3.24009 10.7069C4.4781 10.7166 5.61543 10.2795 6.49885 9.54627C5.62709 8.79918 4.49678 8.34417 3.25876 8.33441C2.02075 8.32466 0.883423 8.7618 0 9.49504ZM13.1568 14.8596C12.2895 13.9763 11.8136 12.8548 11.7271 11.7101C12.8702 11.8177 13.9829 12.3142 14.8502 13.1975C15.7175 14.0809 16.1934 15.2024 16.2799 16.3471C15.1368 16.2394 14.0241 15.7429 13.1568 14.8596ZM2.69819 2.68277C2.78468 3.82748 3.26058 4.94897 4.12789 5.83232C4.99518 6.71565 6.10787 7.21214 7.25098 7.31979C7.16449 6.17508 6.68858 5.05358 5.82128 4.17024C4.95398 3.2869 3.84129 2.79042 2.69819 2.68277ZM8.34154 15.7539C8.33859 14.5161 8.78206 13.3814 9.5203 12.5022C10.2627 13.3778 10.7116 14.5104 10.7145 15.7482C10.7175 16.9861 10.274 18.1208 9.53575 19C8.79335 18.1243 8.34448 16.9917 8.34154 15.7539Z" fill="black"/>
</svg>
