<svg width="17" height="16" viewBox="0 0 17 16" fill="none" xmlns="http://www.w3.org/2000/svg">
<path fill-rule="evenodd" clip-rule="evenodd" d="M0 1C0 0.447715 0.447715 0 1 0H16C16.5523 0 17 0.447715 17 1C17 1.55228 16.5523 2 16 2H1C0.447715 2 0 1.55228 0 1ZM0 8C0 7.44772 0.447715 7 1 7H16C16.5523 7 17 7.44772 17 8C17 8.55229 16.5523 9 16 9H1C0.447715 9 0 8.55228 0 8ZM1 14C0.447715 14 0 14.4477 0 15C0 15.5523 0.447715 16 1 16H16C16.5523 16 17 15.5523 17 15C17 14.4477 16.5523 14 16 14H1Z" fill="black"/>
</svg>
