<svg width="18" height="18" viewBox="0 0 18 18" fill="none" xmlns="http://www.w3.org/2000/svg">
<path fill-rule="evenodd" clip-rule="evenodd" d="M8.1 9.9V13.5V17.1C8.1 17.5971 8.50298 18 9 18C9.49702 18 9.9 17.5971 9.9 17.1V13.5V9.9H13.5H17.1C17.597 9.9 18 9.49708 18 9C18 8.50292 17.597 8.1 17.1 8.1H13.5H9.9V0.9C9.9 0.402924 9.49702 0 9 0C8.50298 0 8.1 0.402924 8.1 0.9V8.1H0.9C0.402979 8.1 0 8.50292 0 9C0 9.49708 0.402979 9.9 0.9 9.9H8.1ZM11.5454 6.45474C11.1939 6.10329 11.1939 5.53343 11.5454 5.18198L12.8179 3.90943C13.1694 3.55798 13.7392 3.55798 14.0907 3.90943C14.4422 4.26094 14.4422 4.83074 14.0907 5.18225L12.8182 6.45474C12.4667 6.80625 11.8969 6.80625 11.5454 6.45474ZM3.90948 12.8179C3.55792 13.1694 3.55792 13.7392 3.90948 14.0907C4.26094 14.4422 4.8308 14.4422 5.18225 14.0907L6.4548 12.8182C6.80625 12.4667 6.80625 11.8969 6.4548 11.5454C6.10323 11.1939 5.53348 11.1939 5.18192 11.5454L3.90948 12.8179ZM11.5452 11.5451C11.8968 11.1937 12.4665 11.1937 12.8181 11.5451L14.0905 12.8177C14.4421 13.1691 14.4421 13.739 14.0905 14.0905C13.7391 14.442 13.1692 14.442 12.8177 14.0905L11.5452 12.818C11.1937 12.4665 11.1937 11.8967 11.5452 11.5451ZM5.18214 3.90921C4.83058 3.55776 4.26083 3.55776 3.90927 3.90921C3.55781 4.26072 3.55781 4.83052 3.90927 5.18203L5.18181 6.45452C5.53326 6.80603 6.10312 6.80603 6.45458 6.45452C6.80614 6.10307 6.80614 5.53321 6.45458 5.18176L5.18214 3.90921Z" fill="black"/>
</svg>
