<svg width="16" height="16" viewBox="0 0 16 16" fill="none" xmlns="http://www.w3.org/2000/svg">
<path fill-rule="evenodd" clip-rule="evenodd" d="M0 1.5C0 0.671573 0.671631 0 1.5 0C2.32837 0 3 0.671573 3 1.5C3 2.32843 2.32837 3 1.5 3C0.671631 3 0 2.32843 0 1.5ZM0 8C0 7.17157 0.671631 6.5 1.5 6.5C2.32837 6.5 3 7.17157 3 8C3 8.82843 2.32837 9.5 1.5 9.5C0.671631 9.5 0 8.82843 0 8ZM1.5 13C0.671631 13 0 13.6716 0 14.5C0 15.3284 0.671631 16 1.5 16C2.32837 16 3 15.3284 3 14.5C3 13.6716 2.32837 13 1.5 13ZM6.5 1.5C6.5 0.671573 7.17163 0 8 0C8.82837 0 9.5 0.671573 9.5 1.5C9.5 2.32843 8.82837 3 8 3C7.17163 3 6.5 2.32843 6.5 1.5ZM8 6.5C7.17163 6.5 6.5 7.17157 6.5 8C6.5 8.82843 7.17163 9.5 8 9.5C8.82837 9.5 9.5 8.82843 9.5 8C9.5 7.17157 8.82837 6.5 8 6.5ZM6.5 14.5C6.5 13.6716 7.17163 13 8 13C8.82837 13 9.5 13.6716 9.5 14.5C9.5 15.3284 8.82837 16 8 16C7.17163 16 6.5 15.3284 6.5 14.5ZM14.5 0C13.6716 0 13 0.671573 13 1.5C13 2.32843 13.6716 3 14.5 3C15.3284 3 16 2.32843 16 1.5C16 0.671573 15.3284 0 14.5 0ZM13 8C13 7.17157 13.6716 6.5 14.5 6.5C15.3284 6.5 16 7.17157 16 8C16 8.82843 15.3284 9.5 14.5 9.5C13.6716 9.5 13 8.82843 13 8ZM14.5 13C13.6716 13 13 13.6716 13 14.5C13 15.3284 13.6716 16 14.5 16C15.3284 16 16 15.3284 16 14.5C16 13.6716 15.3284 13 14.5 13Z" fill="black"/>
</svg>
